<svg xmlns="http://www.w3.org/2000/svg" viewBox="0 0 570 110" role="img" aria-label="PLENNA logo header option">
  <title>PLENNA</title>
  <g fill="#00AEEF" shape-rendering="geometricPrecision">
    <path d="M 149 108 L 141 105 L 134 105 L 125 109 L 119 116 L 117 121 L 118 135 L 56 196 L 54 200 L 54 205 L 57 209 L 63 211 L 66 210 L 130 146 L 145 145 L 149 143 L 155 137 L 158 129 L 157 119 L 154 113 Z M 136 119 L 142 120 L 145 124 L 144 129 L 139 133 L 135 132 L 131 127 L 132 122 Z M 86 12 L 66 18 L 52 26 L 45 31 L 32 44 L 26 52 L 19 64 L 13 83 L 13 88 L 12 89 L 12 115 L 17 135 L 21 142 L 21 144 L 30 158 L 48 176 L 54 179 L 59 178 L 63 173 L 63 167 L 46 151 L 42 145 L 43 141 L 86 98 L 98 98 L 105 95 L 110 90 L 113 84 L 113 72 L 106 62 L 98 58 L 87 58 L 80 62 L 76 67 L 73 74 L 74 86 L 33 127 L 30 122 L 29 112 L 28 111 L 28 95 L 31 80 L 39 62 L 56 44 L 64 38 L 83 30 L 94 29 L 95 28 L 115 29 L 128 33 L 143 41 L 156 53 L 161 59 L 168 71 L 174 90 L 175 107 L 174 108 L 173 121 L 170 128 L 170 131 L 166 140 L 155 155 L 119 190 L 112 191 L 105 194 L 98 202 L 96 208 L 97 218 L 99 222 L 105 228 L 111 231 L 122 231 L 128 228 L 133 223 L 135 219 L 136 207 L 133 201 L 134 198 L 163 170 L 174 157 L 176 152 L 183 142 L 190 119 L 190 112 L 191 111 L 190 86 L 188 77 L 181 59 L 169 42 L 155 29 L 141 20 L 121 13 L 107 12 L 106 11 Z M 114 205 L 119 205 L 122 207 L 123 213 L 121 216 L 114 217 L 111 214 L 110 210 Z M 91 72 L 96 72 L 99 75 L 99 80 L 95 84 L 91 84 L 87 79 L 87 76 Z Z" transform="translate(8 9) scale(0.418) translate(-12 -11)" fill-rule="evenodd"/>
    <path d="M 624 80 L 622 83 L 616 102 L 613 107 L 604 134 L 600 142 L 594 162 L 610 162 L 613 157 L 616 147 L 618 145 L 648 145 L 655 162 L 658 163 L 659 162 L 672 162 L 667 146 L 663 138 L 660 127 L 642 80 Z M 632 102 L 635 103 L 635 106 L 643 128 L 642 130 L 624 130 L 623 129 L 623 126 L 625 123 Z M 515 80 L 514 81 L 514 161 L 515 162 L 530 162 L 531 161 L 531 114 L 533 113 L 564 159 L 567 162 L 582 162 L 582 81 L 581 80 L 566 80 L 566 128 L 564 129 L 552 114 L 532 83 L 529 80 Z M 430 80 L 429 81 L 429 161 L 430 162 L 446 162 L 446 115 L 448 114 L 459 128 L 469 145 L 482 162 L 497 162 L 497 80 L 481 80 L 481 128 L 480 129 L 474 124 L 463 106 L 444 80 Z M 363 80 L 362 81 L 362 161 L 363 162 L 414 162 L 415 161 L 415 148 L 414 147 L 381 147 L 379 145 L 379 130 L 381 128 L 410 128 L 411 127 L 411 114 L 381 114 L 379 112 L 379 97 L 380 96 L 413 96 L 415 95 L 415 81 L 414 80 Z M 300 80 L 299 82 L 300 162 L 350 162 L 351 160 L 350 147 L 317 147 L 316 146 L 316 81 L 315 80 Z M 269 81 L 265 80 L 228 80 L 227 81 L 227 161 L 228 162 L 244 162 L 244 138 L 246 135 L 269 134 L 280 128 L 286 121 L 289 112 L 289 102 L 285 92 L 279 86 Z M 244 97 L 246 95 L 261 95 L 266 97 L 271 103 L 271 112 L 270 114 L 263 120 L 255 120 L 254 121 L 245 120 L 244 119 Z" transform="translate(110 13) scale(1.0) translate(-227 -80)" fill-rule="evenodd"/>
  </g>
</svg>
